# xmcd CD database file
# Copyright (C) 1997 Ti Kan
#
# Track frame offsets:
#  150
#  21717
#  40937
#  55797
#  89180
#  110557
#  131097
#  178150
#  192425
#  217322
#  237350
#  265520
#  283927
#  295727
#  319187
#
# Disc length: 4682 seconds
#
# Revision: 1
# Processed by: cddbd v1.4b41PL1 Copyright (c) Steve Scherf et al.
# Submitted via: CDWizzard Release:4.32
#
DISCID=f812480f
DTITLE=Brinsley Schwarz - Brinsley Schwarz
DYEAR=1900
DGENRE=
TTITLE0=Hymn To Me
TTITLE1=Shining Brightly
TTITLE2=Rock And Roll Women
TTITLE3=Lady Constant
TTITLE4=What Do You Suggest?
TTITLE5=Mayfly
TTITLE6=Ballad Of A Has-Been Beauty Queen
TTITLE7=Country Girl
TTITLE8=The Slow One
TTITLE9=Funk Angel
TTITLE10=Piece Of Home
TTITLE11=Love Song
TTITLE12=Starship
TTITLE13=Ebury Down
TTITLE14=Old Jarrow
EXTD=Collection of Brinsley Schwarz's first two albums.  Known on LPs as 
EXTD="Despite It All"
EXTT0=Brinsley Schwarz
EXTT1=Brinsley Schwarz
EXTT2=Brinsley Schwarz
EXTT3=Brinsley Schwarz
EXTT4=Brinsley Schwarz
EXTT5=Brinsley Schwarz
EXTT6=Brinsley Schwarz
EXTT7=Brinsley Schwarz
EXTT8=Brinsley Schwarz
EXTT9=Brinsley Schwarz
EXTT10=Brinsley Schwarz
EXTT11=Brinsley Schwarz
EXTT12=Brinsley Schwarz
EXTT13=Brinsley Schwarz
EXTT14=Brinsley Schwarz
PLAYORDER=
